<svg width="90" height="90" viewBox="0 0 90 90" fill="none" xmlns="http://www.w3.org/2000/svg">
<rect width="90" height="90" rx="15" fill="#3464F2"/>
<path d="M65.7295 28.6202C66.8297 29.4964 67.68 30.3591 68.2806 31.2082C68.6498 31.73 68.603 31.7694 68.1403 31.3264C67.0992 30.3345 65.9018 29.4349 64.5481 28.6276C63.9131 28.2486 63.3126 27.845 62.7465 27.4167C62.1361 26.954 61.5343 26.586 60.9412 26.3128C59.7106 25.7468 58.4812 25.1708 57.253 24.5851C56.8543 24.3955 56.4531 24.2552 56.0495 24.1642C55.6532 24.0756 55.2803 23.939 54.9308 23.7544C48.219 20.1991 35.4932 20.524 31.9306 28.4541C29.8115 33.176 33.1526 39.2823 36.4679 42.7084C38.1169 44.4115 39.8644 46.1209 41.7103 47.8363C41.7293 47.8547 41.7534 47.867 41.7794 47.8716C41.8054 47.8763 41.8323 47.873 41.8564 47.8623C41.8806 47.8516 41.9011 47.8339 41.9151 47.8116C41.9292 47.7892 41.9363 47.7631 41.9355 47.7367L41.9096 32.2198C41.9096 32.1791 41.9177 32.1387 41.9333 32.1011C41.9488 32.0635 41.9717 32.0293 42.0005 32.0005C42.0293 31.9717 42.0635 31.9489 42.1011 31.9333C42.1387 31.9177 42.179 31.9097 42.2198 31.9097L48.3224 31.9208C48.4037 31.9208 48.4816 31.9531 48.5391 32.0105C48.5965 32.068 48.6288 32.1459 48.6288 32.2272L48.6436 59.4841C48.6438 59.5601 48.6283 59.6353 48.5982 59.705C48.5681 59.7747 48.524 59.8375 48.4686 59.8894C48.4132 59.9413 48.3477 59.9813 48.2762 60.0069C48.2047 60.0324 48.1287 60.043 48.0529 60.0379C46.0445 59.8952 44.1555 59.339 42.3859 58.3692C36.858 55.3394 32.1939 51.1812 28.3938 45.8944C25.551 41.9368 23.9709 37.3958 24.3438 32.5816C24.8348 26.2648 30.0477 22.1853 35.9289 20.8083C42.6739 19.2282 49.3746 20.0994 55.9165 22.2555C56.805 22.5484 57.5594 22.872 58.1797 23.2264C58.6694 23.5095 59.1506 23.7778 59.6232 24.0313C60.108 24.2946 60.572 24.5801 61.015 24.8878C61.8247 25.4514 62.685 26.0347 63.5956 26.6377C64.3463 27.1349 64.9948 27.6874 65.5412 28.2954C65.5732 28.3323 65.5954 28.3741 65.6077 28.4209C65.6249 28.5021 65.6655 28.5686 65.7295 28.6202Z" fill="white"/>
<path d="M44.9962 30.7615C47.1921 30.7615 48.9723 28.9813 48.9723 26.7854C48.9723 24.5894 47.1921 22.8093 44.9962 22.8093C42.8002 22.8093 41.0201 24.5894 41.0201 26.7854C41.0201 28.9813 42.8002 30.7615 44.9962 30.7615Z" fill="white"/>
<path d="M39.7389 43.1145C35.9695 39.8841 30.8821 32.8253 34.4041 27.9852C35.4994 26.4814 37.0856 25.3665 39.1629 24.6404C39.3401 24.5789 39.4004 24.638 39.3438 24.8176C38.7138 26.8014 39.0042 28.6535 40.2151 30.3739C40.2988 30.4945 40.3111 30.6225 40.252 30.7578C40.0859 31.1455 39.9161 31.4814 39.9161 31.9171C39.9136 35.4047 39.9136 39.11 39.9161 43.0333C39.9161 43.1883 39.857 43.2154 39.7389 43.1145Z" fill="white"/>
<path d="M22.8598 59.1371C21.6538 57.7933 21.7165 57.7317 23.048 58.9525C28.3397 63.8036 34.638 66.8789 41.943 68.1785C45.1844 68.7568 48.5341 68.4923 51.9922 67.3847C57.0869 65.7529 60.86 61.4298 59.2651 55.7554C57.781 50.4797 54.2368 46.8395 50.2681 43.3064C50.1742 43.2241 50.0989 43.1229 50.0474 43.0096C49.9958 42.8962 49.9691 42.7734 49.969 42.6493V33.0468C49.9691 33.0112 49.9788 32.9763 49.9972 32.9458C50.0155 32.9153 50.0419 32.8903 50.0735 32.8733C50.1052 32.8564 50.1409 32.8482 50.1771 32.8494C50.2132 32.8507 50.2485 32.8615 50.2792 32.8806C54.8497 35.8267 58.8147 39.4657 62.1743 43.7975C64.6479 46.9835 66.2243 50.668 66.5529 54.6478C67.3208 63.9771 59.8374 68.9759 51.4753 69.8029C40.9868 70.844 30.0035 67.082 22.8598 59.1371Z" fill="white"/>
</svg>
