<svg width="50" height="50" viewBox="0 0 50 50" fill="none" xmlns="http://www.w3.org/2000/svg">
<path d="M7.15039 10.6973C6.47656 10.6973 5.92969 10.1504 5.92969 9.47656V3.90625C5.92969 3.23242 6.47656 2.68555 7.15039 2.68555C7.82422 2.68555 8.37109 3.23242 8.37109 3.90625V9.47656C8.37109 10.1504 7.82422 10.6973 7.15039 10.6973ZM7.15039 42.8428C6.47656 42.8428 5.92969 42.2959 5.92969 41.6221V36.0518C5.92969 35.3779 6.47656 34.8311 7.15039 34.8311C7.82422 34.8311 8.37109 35.3779 8.37109 36.0518V41.6221C8.37109 42.2959 7.82422 42.8428 7.15039 42.8428Z" fill="#1B8900"/>
<path d="M19.0498 36.8447C18.376 36.8447 17.8291 36.2979 17.8291 35.624V31.8711C17.8291 31.1973 18.376 30.6504 19.0498 30.6504C19.7236 30.6504 20.2705 31.1973 20.2705 31.8711V35.624C20.2705 36.2979 19.7236 36.8447 19.0498 36.8447ZM19.0498 17.9404C18.376 17.9404 17.8291 17.3936 17.8291 16.7197V12.9668C17.8291 12.293 18.376 11.7461 19.0498 11.7461C19.7236 11.7461 20.2705 12.293 20.2705 12.9668V16.7197C20.2705 17.3936 19.7236 17.9404 19.0498 17.9404ZM30.9502 47.3145C30.2764 47.3145 29.7295 46.7676 29.7295 46.0938V43.001C29.7295 42.3271 30.2764 41.7803 30.9502 41.7803C31.624 41.7803 32.1709 42.3271 32.1709 43.001V46.0938C32.1709 46.7676 31.624 47.3145 30.9502 47.3145ZM30.9502 21.9629C30.2764 21.9629 29.7295 21.416 29.7295 20.7422V17.6494C29.7295 16.9756 30.2764 16.4287 30.9502 16.4287C31.624 16.4287 32.1709 16.9756 32.1709 17.6494V20.7422C32.1709 21.416 31.624 21.9629 30.9502 21.9629Z" fill="#FF3434"/>
<path d="M42.8496 10.124C42.1758 10.124 41.6289 9.57715 41.6289 8.90332V3.90625C41.6289 3.23242 42.1758 2.68555 42.8496 2.68555C43.5234 2.68555 44.0703 3.23242 44.0703 3.90625V8.90332C44.0703 9.57715 43.5234 10.124 42.8496 10.124ZM42.8496 43.582C42.1758 43.582 41.6289 43.0352 41.6289 42.3613V37.3643C41.6289 36.6904 42.1758 36.1436 42.8496 36.1436C43.5234 36.1436 44.0703 36.6904 44.0703 37.3643V42.3613C44.0703 43.0352 43.5234 43.582 42.8496 43.582Z" fill="#1B8900"/>
<path d="M8.44141 8.25586H5.85938C4.10652 8.25586 2.68555 9.67683 2.68555 11.4297V34.0977C2.68555 35.8505 4.10652 37.2715 5.85938 37.2715H8.44141C10.1943 37.2715 11.6152 35.8505 11.6152 34.0977V11.4297C11.6152 9.67683 10.1943 8.25586 8.44141 8.25586Z" fill="#52B047"/>
<path d="M20.3408 15.499H17.7588C16.0059 15.499 14.585 16.92 14.585 18.6729V29.918C14.585 31.6708 16.0059 33.0918 17.7588 33.0918H20.3408C22.0937 33.0918 23.5146 31.6708 23.5146 29.918V18.6729C23.5146 16.92 22.0937 15.499 20.3408 15.499Z" fill="#F75C5C"/>
<path d="M32.2402 19.5215H29.6582C27.9053 19.5215 26.4844 20.9425 26.4844 22.6953V41.0469C26.4844 42.7997 27.9053 44.2207 29.6582 44.2207H32.2402C33.9931 44.2207 35.4141 42.7997 35.4141 41.0469V22.6953C35.4141 20.9425 33.9931 19.5215 32.2402 19.5215Z" fill="#F75C5C"/>
<path d="M44.1406 7.68262H41.5586C39.8057 7.68262 38.3848 9.10359 38.3848 10.8564V35.4102C38.3848 37.163 39.8057 38.584 41.5586 38.584H44.1406C45.8935 38.584 47.3145 37.163 47.3145 35.4102V10.8564C47.3145 9.10359 45.8935 7.68262 44.1406 7.68262Z" fill="#52B047"/>
</svg>
