<svg width="18" height="22" viewBox="0 0 18 22" fill="none" xmlns="http://www.w3.org/2000/svg">
<path d="M5.18336 17.5L5.58336 18.1857C7.38336 21.2714 10.9834 21.2714 12.7834 18.1857L13.1834 17.5M1.36619 15.0496L1.46954 15.2627C2.13331 16.6311 3.52054 17.5 5.04144 17.5H13.2623C14.5656 17.5 15.7785 16.8342 16.4783 15.7347C17.4661 14.1826 17.2045 12.1465 15.8564 10.8945L15.8125 10.8538C14.8972 10.0038 14.4466 8.76543 14.6015 7.52598L14.6662 7.00905C15.0318 4.08379 12.7509 1.5 9.80286 1.5H8.09995C5.15552 1.5 2.87737 4.08064 3.24258 7.00234L3.32194 7.63719C3.46808 8.80631 3.04102 9.9741 2.17514 10.7731C0.99242 11.8645 0.663827 13.6016 1.36619 15.0496Z" stroke="#333333" stroke-width="1.5" stroke-linecap="round"/>
</svg>
