<svg width="17" height="16" viewBox="0 0 17 16" fill="none" xmlns="http://www.w3.org/2000/svg">
<g id="Undo">
<path id="Vector" d="M2.00005 5L2.00005 5.75H2.00005V5ZM3.00005 14.25C2.58584 14.25 2.25005 14.5858 2.25005 15C2.25005 15.4142 2.58584 15.75 3.00005 15.75V14.25ZM3.67204 9.53269C3.96624 9.82427 4.44111 9.82215 4.73269 9.52796C5.02427 9.23376 5.02216 8.75889 4.72796 8.46731L3.67204 9.53269ZM2.78962 7.60215L2.26167 8.13484H2.26167L2.78962 7.60215ZM2.78962 2.39785L2.26167 1.86516L2.26167 1.86516L2.78962 2.39785ZM4.72796 1.53269C5.02216 1.24111 5.02427 0.766238 4.73269 0.472041C4.44111 0.177844 3.96624 0.175726 3.67204 0.467309L4.72796 1.53269ZM1.01591 5.25067L0.271931 5.34549L0.271931 5.3455L1.01591 5.25067ZM1.01591 4.74933L0.271931 4.6545L0.271931 4.65451L1.01591 4.74933ZM2.00005 5.75H11V4.25H2.00005V5.75ZM11 14.25H3.00005V15.75H11V14.25ZM15.25 10C15.25 12.3472 13.3473 14.25 11 14.25V15.75C14.1757 15.75 16.75 13.1756 16.75 10H15.25ZM11 5.75C13.3473 5.75 15.25 7.65279 15.25 10H16.75C16.75 6.82436 14.1757 4.25 11 4.25V5.75ZM4.72796 8.46731L3.31758 7.06946L2.26167 8.13484L3.67204 9.53269L4.72796 8.46731ZM3.31758 2.93054L4.72796 1.53269L3.67204 0.467309L2.26167 1.86516L3.31758 2.93054ZM3.31758 7.06946C2.74268 6.49967 2.35733 6.11614 2.09823 5.79351C1.84863 5.48272 1.77852 5.302 1.75989 5.15584L0.271931 5.3455C0.339893 5.87869 0.594265 6.31633 0.928691 6.73276C1.25361 7.13735 1.71182 7.58988 2.26167 8.13484L3.31758 7.06946ZM2.26167 1.86516C1.71182 2.41012 1.25362 2.86265 0.928692 3.26724C0.594266 3.68366 0.339893 4.12131 0.271931 4.6545L1.75989 4.84416C1.77852 4.698 1.84863 4.51728 2.09823 4.20649C2.35733 3.88386 2.74268 3.50033 3.31758 2.93054L2.26167 1.86516ZM1.75989 5.15584C1.7533 5.10409 1.75 5.05204 1.75 5H0.25C0.25 5.1154 0.257311 5.23079 0.271931 5.34549L1.75989 5.15584ZM1.75 5C1.75 4.94796 1.7533 4.89591 1.75989 4.84416L0.271931 4.65451C0.257311 4.76921 0.25 4.8846 0.25 5H1.75ZM2.00005 4.25L1 4.25L0.999999 5.75L2.00005 5.75L2.00005 4.25Z" fill="white"/>
</g>
</svg>
