<svg width="20" height="17" viewBox="0 0 20 17" fill="none" xmlns="http://www.w3.org/2000/svg">
<g id="elements">
<path id="Vector" d="M15.5132 14.6667H15.9217C16.8799 14.6667 17.6421 14.2301 18.3264 13.6196C20.0649 12.0688 15.9783 10.5 14.5832 10.5M12.9165 2.22398C13.1057 2.18645 13.3022 2.16667 13.5038 2.16667C15.0204 2.16667 16.2498 3.28596 16.2498 4.66667C16.2498 6.04738 15.0204 7.16667 13.5038 7.16667C13.3022 7.16667 13.1057 7.1469 12.9165 7.10936" stroke="#333333" stroke-width="1.5" stroke-linecap="round"/>
<g id="Vector_2">
<path d="M3.73443 11.426C2.75195 11.9525 0.175948 13.0276 1.7449 14.3729C2.51133 15.03 3.36492 15.5 4.4381 15.5H10.5619C11.6351 15.5 12.4887 15.03 13.2551 14.3729C14.8241 13.0276 12.2481 11.9525 11.2656 11.426C8.96167 10.1913 6.03832 10.1913 3.73443 11.426Z" stroke="#333333" stroke-width="1.5"/>
<path d="M10.8333 4.25001C10.8333 6.09095 9.34095 7.58334 7.5 7.58334C5.65905 7.58334 4.16667 6.09095 4.16667 4.25001C4.16667 2.40906 5.65905 0.916672 7.5 0.916672C9.34095 0.916672 10.8333 2.40906 10.8333 4.25001Z" stroke="#333333" stroke-width="1.5"/>
</g>
</g>
</svg>
