<svg width="19" height="19" viewBox="0 0 19 19" fill="none" xmlns="http://www.w3.org/2000/svg">
<path d="M11.2947 16.1679C14.432 15.9594 16.9309 13.4249 17.1366 10.2432C17.1768 9.62051 17.1768 8.97569 17.1366 8.35304C16.9309 5.17128 14.432 2.63685 11.2947 2.42831C10.2244 2.35716 9.10692 2.3573 8.03879 2.42831C4.90154 2.63685 2.40255 5.17128 2.19693 8.35304C2.15669 8.97569 2.15669 9.62051 2.19693 10.2432C2.27182 11.402 2.78432 12.475 3.38768 13.381C3.738 14.0152 3.50681 14.8069 3.14191 15.4984C2.87881 15.9969 2.74725 16.2462 2.85288 16.4263C2.9585 16.6064 3.19444 16.6122 3.66632 16.6236C4.5995 16.6464 5.22876 16.3818 5.72826 16.0135C6.01155 15.8046 6.1532 15.7001 6.25083 15.6881C6.34845 15.6761 6.54057 15.7552 6.92475 15.9135C7.27005 16.0557 7.67097 16.1434 8.03879 16.1679C9.10692 16.2389 10.2244 16.239 11.2947 16.1679Z" stroke="#848485" stroke-width="1.5" stroke-linejoin="round"/>
<path d="M9.66314 9.5H9.66987M12.6598 9.5H12.6665M6.6665 9.5H6.67323" stroke="#848485" stroke-width="2" stroke-linecap="round" stroke-linejoin="round"/>
</svg>
