<svg width="73" height="18" viewBox="0 0 73 18" fill="none" xmlns="http://www.w3.org/2000/svg">
<line opacity="0.3" x1="0.5" y1="4" x2="0.5" y2="14" stroke="#333333"/>
<g clip-path="url(#clip0_794_2954)">
<path d="M26.75 11.25C26.75 9.12868 26.75 8.06802 27.409 7.40901C28.068 6.75 29.1287 6.75 31.25 6.75L32 6.75C34.1213 6.75 35.182 6.75 35.841 7.40901C36.5 8.06802 36.5 9.12868 36.5 11.25V12C36.5 14.1213 36.5 15.182 35.841 15.841C35.182 16.5 34.1213 16.5 32 16.5H31.25C29.1287 16.5 28.068 16.5 27.409 15.841C26.75 15.182 26.75 14.1213 26.75 12L26.75 11.25Z" stroke="#848485" stroke-width="1.5" stroke-linecap="round" stroke-linejoin="round"/>
<path d="M32.7499 6.75C32.7482 4.53218 32.7146 3.38341 32.069 2.59682C31.9444 2.44492 31.8051 2.30563 31.6532 2.18097C30.8234 1.5 29.5906 1.5 27.125 1.5C24.6594 1.5 23.4266 1.5 22.5968 2.18097C22.4449 2.30563 22.3056 2.44492 22.181 2.59682C21.5 3.42658 21.5 4.65939 21.5 7.125C21.5 9.59061 21.5 10.8234 22.181 11.6532C22.3056 11.8051 22.4449 11.9444 22.5968 12.069C23.3834 12.7146 24.5322 12.7482 26.75 12.7499" stroke="#848485" stroke-width="1.5" stroke-linecap="round" stroke-linejoin="round"/>
</g>
<path d="M47.944 13.68C45.28 13.68 43.48 11.88 43.48 9.3C43.48 6.696 45.316 4.92 47.92 4.92C49.156 4.92 50.224 5.364 51.076 6.228L50.008 7.248C49.456 6.696 48.784 6.42 47.968 6.42C46.3 6.42 45.16 7.584 45.16 9.3C45.16 11.016 46.3 12.18 47.968 12.18C48.796 12.18 49.576 11.868 50.152 11.304L51.16 12.408C50.296 13.26 49.216 13.68 47.944 13.68ZM54.8972 13.632C52.9412 13.632 51.6932 12.348 51.6932 10.536C51.6932 8.724 52.9412 7.44 54.8972 7.44C56.8532 7.44 58.1012 8.724 58.1012 10.536C58.1012 12.348 56.8532 13.632 54.8972 13.632ZM54.8972 12.24C55.8812 12.24 56.5172 11.484 56.5172 10.536C56.5172 9.588 55.8812 8.832 54.8972 8.832C53.9132 8.832 53.2772 9.588 53.2772 10.536C53.2772 11.484 53.9132 12.24 54.8972 12.24ZM62.8119 7.44C64.5159 7.44 65.6919 8.712 65.6919 10.536C65.6919 12.36 64.5159 13.632 62.8119 13.632C62.0319 13.632 61.3479 13.368 60.8679 12.888V16.152H59.2719V7.572H60.6519L60.7599 8.28C61.2399 7.74 61.9719 7.44 62.8119 7.44ZM62.4879 12.24C63.4359 12.24 64.1079 11.532 64.1079 10.536C64.1079 9.54 63.4359 8.832 62.4879 8.832C61.5279 8.832 60.8559 9.54 60.8559 10.536C60.8559 11.532 61.5279 12.24 62.4879 12.24ZM70.831 7.572H72.559L68.851 16.152H67.135L68.311 13.428L65.983 7.572H67.699L68.575 9.888L69.199 11.7L69.883 9.888L70.831 7.572Z" fill="#848485"/>
<defs>
<clipPath id="clip0_794_2954">
<rect width="18" height="18" fill="white" transform="translate(20)"/>
</clipPath>
</defs>
</svg>
