<svg width="23" height="23" viewBox="0 0 23 23" fill="none" xmlns="http://www.w3.org/2000/svg">
<path fill-rule="evenodd" clip-rule="evenodd" d="M11.4998 1.41678C10.8396 1.41678 10.4345 1.89931 10.1711 2.315C9.90079 2.74155 9.6219 3.35599 9.29091 4.08523C9.16239 4.36835 9.03768 4.65471 8.91277 4.94152C8.62209 5.60896 8.33033 6.27888 7.98692 6.91645C7.7249 7.4029 7.26209 7.68035 6.6979 7.48011C6.48517 7.40461 6.21745 7.28615 5.81314 7.10645C5.71587 7.06322 5.61432 7.01496 5.50952 6.96515C4.95361 6.70097 4.30615 6.39329 3.71992 6.56101C3.14354 6.72592 2.73332 7.20485 2.59865 7.76499C2.5168 8.10539 2.58816 8.45461 2.67179 8.75518C2.75824 9.06591 2.89895 9.4553 3.06864 9.9249L3.06864 9.92492L4.61992 14.2182L4.61993 14.2182C4.93622 15.0936 5.19152 15.8002 5.45601 16.3487C5.99684 17.4701 6.84962 18.1549 8.09889 18.3062C8.66812 18.3751 9.36638 18.3751 10.2152 18.3751H12.7844C13.6333 18.3751 14.3315 18.3751 14.9008 18.3062C16.15 18.1549 17.0028 17.4701 17.5437 16.3487C17.8082 15.8002 18.0635 15.0936 18.3798 14.2181L19.931 9.92487L19.9311 9.92477C20.1007 9.45522 20.2414 9.06588 20.3279 8.75518C20.4115 8.45461 20.4829 8.10539 20.401 7.76499C20.2663 7.20485 19.8561 6.72592 19.2797 6.56101C18.6994 6.39497 18.0542 6.69986 17.5037 6.95999C17.4043 7.00693 17.3081 7.05242 17.2159 7.09341C17.1595 7.11845 17.1033 7.14375 17.0469 7.16908C16.8014 7.27946 16.5552 7.39018 16.3018 7.48011C15.7376 7.68035 15.2748 7.4029 15.0127 6.91645C14.6693 6.27887 14.3776 5.60894 14.0869 4.9415C13.962 4.65468 13.8373 4.36833 13.7087 4.0852L13.7087 4.08517C13.3777 3.35596 13.0989 2.74154 12.8286 2.315C12.5652 1.89931 12.16 1.41678 11.4998 1.41678ZM11.4991 12.4168C10.7431 12.4168 10.1303 13.0324 10.1303 13.7918C10.1303 14.5512 10.7431 15.1668 11.4991 15.1668H11.5114C12.2674 15.1668 12.8803 14.5512 12.8803 13.7918C12.8803 13.0324 12.2674 12.4168 11.5114 12.4168H11.4991Z" fill="url(#paint0_linear_736_2132)"/>
<path fill-rule="evenodd" clip-rule="evenodd" d="M5.99988 20.6666C5.99988 20.1604 6.41028 19.75 6.91654 19.75H16.0832C16.5895 19.75 16.9999 20.1604 16.9999 20.6666C16.9999 21.1729 16.5895 21.5833 16.0832 21.5833H6.91654C6.41028 21.5833 5.99988 21.1729 5.99988 20.6666Z" fill="url(#paint1_linear_736_2132)"/>
<defs>
<linearGradient id="paint0_linear_736_2132" x1="11.4998" y1="1.41678" x2="11.4998" y2="18.3751" gradientUnits="userSpaceOnUse">
<stop stop-color="#FF9F0F"/>
<stop offset="1" stop-color="#FF5959"/>
</linearGradient>
<linearGradient id="paint1_linear_736_2132" x1="11.4999" y1="19.75" x2="11.4999" y2="21.5833" gradientUnits="userSpaceOnUse">
<stop stop-color="#FF9F0F"/>
<stop offset="1" stop-color="#FF5959"/>
</linearGradient>
</defs>
</svg>
