<svg width="22" height="22" viewBox="0 0 22 22" fill="none" xmlns="http://www.w3.org/2000/svg">
<g id="elements">
<path id="Subtract" d="M14.9217 5.75149C14.0461 5.75142 13.2675 5.75135 12.6389 5.83589C11.9557 5.92778 11.2658 6.13967 10.7019 6.7037C10.138 7.26773 9.92623 7.95785 9.83437 8.6413C9.74986 9.2701 9.74992 10.049 9.75 10.9248L9.75 11.7534H9C8.30964 11.7534 7.75 12.3132 7.75 13.0038C7.75 13.6944 8.30964 14.2542 9 14.2542H9.75L9.75 20.2516C9.75 20.7259 9.75 20.9631 9.60131 21.1099C9.45261 21.2568 9.21731 21.2538 8.7467 21.2478C7.55726 21.2328 6.54575 21.1911 5.68802 21.0757C4.31137 20.8906 3.21911 20.5034 2.36091 19.6449C1.50272 18.7865 1.11568 17.6939 0.930595 16.3168C0.749978 14.973 0.749988 13.2517 0.75 11.0604L0.75 10.9459C0.749988 8.75457 0.749978 7.03333 0.930595 5.68949C1.11568 4.3124 1.50272 3.2198 2.36091 2.36134C3.21911 1.50287 4.31137 1.11571 5.68802 0.930567C7.03143 0.749893 8.75214 0.749903 10.9428 0.749916L11.0572 0.749916C13.2479 0.749903 14.9686 0.749893 16.312 0.930567C17.6886 1.11571 18.7809 1.50287 19.6391 2.36134C20.4973 3.2198 20.8843 4.3124 21.0694 5.68949C21.25 7.03333 21.25 8.75457 21.25 10.946V11.0604C21.25 13.2517 21.25 14.973 21.0694 16.3168C20.8843 17.6939 20.4973 18.7865 19.6391 19.6449C18.7809 20.5034 17.6886 20.8906 16.312 21.0757C15.4543 21.1911 14.4427 21.2328 13.2533 21.2478C12.7827 21.2538 12.5474 21.2568 12.3987 21.1099C12.25 20.9631 12.25 20.7259 12.25 20.2516L12.25 14.2542H14C14.6904 14.2542 15.25 13.6944 15.25 13.0038C15.25 12.3132 14.6904 11.7534 14 11.7534H12.25L12.25 11.0032C12.25 10.0247 12.2527 9.41664 12.3121 8.97453C12.3657 8.57549 12.4449 8.49667 12.4685 8.47323L12.4697 8.47202L12.4709 8.47082C12.4943 8.44725 12.5731 8.36803 12.972 8.31438C13.414 8.25494 14.0219 8.25229 15 8.25229H16C16.6904 8.25229 17.25 7.69247 17.25 7.00189C17.25 6.31132 16.6904 5.7515 16 5.7515L14.9217 5.75149Z" fill="#1877F2"/>
</g>
</svg>
