<svg width="24" height="24" viewBox="0 0 24 24" fill="none" xmlns="http://www.w3.org/2000/svg">
<path d="M7.79098 19C7.46464 18.8681 7.28441 18.8043 7.18359 18.8166C7.05968 18.8318 6.8799 18.9637 6.52034 19.2276C5.88637 19.6928 5.0877 20.027 3.90328 19.9983C3.30437 19.9838 3.00491 19.9766 2.87085 19.7491C2.73679 19.5216 2.90376 19.2067 3.23769 18.5769C3.70083 17.7035 3.99427 16.7035 3.54963 15.9023C2.78384 14.7579 2.13336 13.4025 2.0383 11.9388C1.98723 11.1523 1.98723 10.3377 2.0383 9.55124C2.29929 5.53218 5.47105 2.33079 9.45292 2.06736C10.8086 1.97768 12.2269 1.97749 13.5854 2.06736C17.5503 2.32967 20.712 5.50501 20.9965 9.50003" stroke="#333333" stroke-width="1.5" stroke-linecap="round" stroke-linejoin="round"/>
<path d="M14.6976 21.6472C12.1878 21.4862 10.1886 19.5298 10.0241 17.0737C9.99195 16.5931 9.99195 16.0953 10.0241 15.6147C10.1886 13.1586 12.1878 11.2022 14.6976 11.0412C15.5539 10.9863 16.4479 10.9864 17.3024 11.0412C19.8122 11.2022 21.8114 13.1586 21.9759 15.6147C22.008 16.0953 22.008 16.5931 21.9759 17.0737C21.9159 17.9682 21.5059 18.7965 21.0233 19.4959C20.743 19.9855 20.928 20.5966 21.2199 21.1303C21.4304 21.5152 21.5356 21.7077 21.4511 21.8467C21.3666 21.9857 21.1778 21.9901 20.8003 21.999C20.0538 22.0165 19.5504 21.8123 19.1508 21.528C18.9242 21.3667 18.8108 21.2861 18.7327 21.2768C18.6546 21.2675 18.5009 21.3286 18.1936 21.4508C17.9174 21.5606 17.5966 21.6283 17.3024 21.6472C16.4479 21.702 15.5539 21.7021 14.6976 21.6472Z" stroke="#333333" stroke-width="1.5" stroke-linejoin="round"/>
</svg>
