<svg width="22" height="22" viewBox="0 0 22 22" fill="none" xmlns="http://www.w3.org/2000/svg">
<path d="M9 17L13 17" stroke="#333333" stroke-width="1.5" stroke-linecap="round" stroke-linejoin="round"/>
<path d="M1.35139 12.2135C0.998371 9.91627 0.821861 8.76767 1.25617 7.74941C1.69047 6.73115 2.65403 6.03446 4.58114 4.64109L6.02099 3.60003C8.41829 1.8667 9.61694 1.00003 11 1.00003C12.3831 1.00003 13.5817 1.8667 15.979 3.60003L17.4189 4.64109C19.346 6.03446 20.3095 6.73115 20.7438 7.74941C21.1781 8.76767 21.0016 9.91627 20.6486 12.2135L20.3476 14.1724C19.8471 17.429 19.5969 19.0572 18.429 20.0286C17.2611 21 15.5537 21 12.1388 21H9.86119C6.44633 21 4.73891 21 3.571 20.0286C2.40309 19.0572 2.15287 17.429 1.65243 14.1724L1.35139 12.2135Z" stroke="#333333" stroke-width="1.5" stroke-linejoin="round"/>
</svg>
