<svg width="18" height="18" viewBox="0 0 18 18" fill="none" xmlns="http://www.w3.org/2000/svg">
<g id="elements">
<path id="Ellipse 1381 (Stroke)" d="M4.96973 4.78125C4.96973 2.60663 6.73261 0.84375 8.90723 0.84375C11.0818 0.84375 12.8447 2.60663 12.8447 4.78125C12.8447 6.95587 11.0818 8.71875 8.90723 8.71875C6.73261 8.71875 4.96973 6.95587 4.96973 4.78125Z" fill="white"/>
<path id="Vector (Stroke)" fill-rule="evenodd" clip-rule="evenodd" d="M13.7822 10.4062C14.1964 10.4063 14.5322 10.742 14.5322 11.1562V13.0312H16.4072C16.8214 13.0312 17.1572 13.367 17.1572 13.7812C17.1572 14.1955 16.8214 14.5312 16.4072 14.5312H14.5322V16.4062C14.5322 16.8205 14.1964 17.1563 13.7822 17.1562C13.368 17.1562 13.0322 16.8205 13.0322 16.4062L13.0322 14.5312H11.1572C10.743 14.5312 10.4072 14.1955 10.4072 13.7812C10.4072 13.367 10.743 13.0312 11.1572 13.0312H13.0322L13.0322 11.1562C13.0322 10.742 13.368 10.4062 13.7822 10.4062Z" fill="white"/>
<path id="Subtract" d="M11.7947 10.6534C11.889 10.6978 11.9366 10.8024 11.9228 10.9057C11.9119 10.9876 11.9062 11.0713 11.9062 11.1562V11.6813C11.9062 11.8055 11.8055 11.9062 11.6812 11.9062H11.1562C10.1207 11.9062 9.28125 12.7457 9.28125 13.7812C9.28125 14.8168 10.1207 15.6562 11.1562 15.6562H11.6812C11.8055 15.6562 11.9062 15.757 11.9062 15.8813V16.4062C11.9062 16.4987 11.9129 16.5896 11.9259 16.6785C11.9458 16.8153 11.8579 16.952 11.7199 16.9607C11.6356 16.966 11.55 16.9688 11.4632 16.9688H4.84953C3.4858 16.9688 2.43146 16.298 1.55288 15.4609C1.04361 14.9758 0.789766 14.4297 0.853371 13.8478C0.91318 13.3007 1.24217 12.854 1.58842 12.5151C2.14205 11.9732 2.95018 11.5173 3.48479 11.2157C3.60675 11.1469 3.71456 11.0861 3.80178 11.0341C4.78042 10.4514 5.85447 10.0831 6.95282 9.92815C7.75072 9.81562 8.56204 9.81562 9.35994 9.92815C10.1961 10.0461 11.0181 10.2877 11.7947 10.6534Z" fill="white"/>
</g>
</svg>
