<svg width="14" height="18" viewBox="0 0 14 18" fill="none" xmlns="http://www.w3.org/2000/svg">
<path d="M8.875 6.75C8.875 7.78553 8.03553 8.625 7 8.625C5.96447 8.625 5.125 7.78553 5.125 6.75C5.125 5.71447 5.96447 4.875 7 4.875C8.03553 4.875 8.875 5.71447 8.875 6.75Z" stroke="#848485" stroke-width="1.5"/>
<path d="M11.6667 12.75C12.7126 14.2413 13.2129 15.0356 12.9148 15.675C12.885 15.7391 12.85 15.801 12.8102 15.8601C12.3793 16.5 11.2656 16.5 9.03833 16.5H4.96167C2.73438 16.5 1.62074 16.5 1.18983 15.8601C1.15004 15.801 1.11505 15.7391 1.08516 15.675C0.787143 15.0356 1.28745 14.2413 2.33333 12.75" stroke="#848485" stroke-width="1.5" stroke-linecap="round" stroke-linejoin="round"/>
<path d="M7.94305 13.1202C7.69009 13.3638 7.35199 13.5 7.00011 13.5C6.64824 13.5 6.31014 13.3638 6.05718 13.1202C3.74073 10.8756 0.636392 8.36815 2.15028 4.7278C2.96883 2.75949 4.93371 1.5 7.00011 1.5C9.06652 1.5 11.0314 2.75949 11.8499 4.7278C13.3619 8.36356 10.2652 10.8833 7.94305 13.1202Z" stroke="#848485" stroke-width="1.5"/>
</svg>
