<svg width="24" height="24" viewBox="0 0 24 24" fill="none" xmlns="http://www.w3.org/2000/svg">
<path d="M15 17.625C14.9264 19.477 13.3831 21.0494 11.3156 20.9988C10.8346 20.9871 10.2401 20.8194 9.05112 20.484C6.18961 19.6769 3.70555 18.3204 3.10956 15.2816C3 14.723 3 14.0944 3 12.8373L3 11.1628C3 9.90564 3 9.27708 3.10956 8.71849C3.70555 5.67968 6.18961 4.32319 9.05112 3.51606C10.2401 3.18068 10.8346 3.01298 11.3156 3.00122C13.3831 2.95064 14.9264 4.5231 15 6.37504" stroke="#333333" stroke-width="1.5" stroke-linecap="round"/>
<path d="M21 12H10M21 12C21 11.2998 19.0057 9.99156 18.5 9.50003M21 12C21 12.7003 19.0057 14.0085 18.5 14.5" stroke="#333333" stroke-width="1.5" stroke-linecap="round" stroke-linejoin="round"/>
</svg>
