<svg width="20" height="20" viewBox="0 0 20 20" fill="none" xmlns="http://www.w3.org/2000/svg">
<path d="M16.5789 5.84948C13.5842 4.34256 9.84037 4.84052 7.34067 7.34336C4.90282 9.78429 4.36948 13.41 5.74065 16.3693C5.55027 16.277 5.36178 16.1736 5.17572 16.0585C4.99099 15.9441 4.89863 15.887 4.82879 15.8593C4.69526 15.8064 4.59399 15.791 4.4508 15.8021C4.37591 15.8079 4.29107 15.8299 4.1214 15.874C3.05352 16.1511 2.51952 16.2897 2.13486 16.2113C1.46722 16.0753 0.945447 15.5528 0.809574 14.8843C0.73129 14.4992 0.869682 13.9646 1.14647 12.8954C1.19046 12.7254 1.21246 12.6404 1.21823 12.5652C1.22921 12.4218 1.2136 12.3192 1.16046 12.1856C1.13258 12.1155 1.07559 12.0237 0.961596 11.8401C-1.09681 8.52365 0.49621 4.50314 2.50699 2.48982C5.82258 -0.82994 11.1982 -0.82994 14.5138 2.48982C15.489 3.46626 16.1774 4.62113 16.5789 5.84948Z" fill="#333333"/>
<path fill-rule="evenodd" clip-rule="evenodd" d="M15.7383 19.2246C13.0046 20.9161 9.63643 19.5411 8.04812 17.9508C5.31764 15.2169 5.31764 10.7844 8.04812 8.05044C10.7786 5.31652 15.2056 5.31652 17.9361 8.05044C19.592 9.70847 20.9039 13.0195 19.2088 15.7506C19.1149 15.9019 19.0679 15.9775 19.045 16.0352C19.0012 16.1453 18.9884 16.2297 18.9974 16.3478C19.0022 16.4098 19.0203 16.4797 19.0565 16.6197C19.2844 17.5002 19.3984 17.9405 19.334 18.2577C19.2221 18.8082 18.7924 19.2384 18.2425 19.3505C17.9258 19.415 17.486 19.3009 16.6066 19.0727C16.4669 19.0364 16.397 19.0183 16.3353 19.0135C16.2174 19.0044 16.134 19.017 16.024 19.0606C15.9665 19.0834 15.8904 19.1305 15.7383 19.2246ZM11.0003 13C11.0003 13.5523 10.5525 14 10.0003 14C9.44798 14 9.00026 13.5523 9.00026 13C9.00026 12.4477 9.44798 12 10.0003 12C10.5525 12 11.0003 12.4477 11.0003 13ZM14.0003 13C14.0003 13.5523 13.5525 14 13.0003 14C12.448 14 12.0003 13.5523 12.0003 13C12.0003 12.4477 12.448 12 13.0003 12C13.5525 12 14.0003 12.4477 14.0003 13ZM16.0003 14C16.5525 14 17.0003 13.5523 17.0003 13C17.0003 12.4477 16.5525 12 16.0003 12C15.448 12 15.0003 12.4477 15.0003 13C15.0003 13.5523 15.448 14 16.0003 14Z" fill="#333333"/>
</svg>
