<svg width="62" height="62" viewBox="0 0 62 62" fill="none" xmlns="http://www.w3.org/2000/svg">
<path d="M3.99658 31C3.99658 45.9117 16.0849 58 30.9966 58C45.9083 58 57.9966 45.9117 57.9966 31C57.9966 16.0883 45.9083 4 30.9966 4C16.0849 4 3.99658 16.0883 3.99658 31Z" fill="#1B8900"/>
<path d="M1 31C1 47.5685 14.4315 61 31 61C47.5685 61 61 47.5685 61 31C61 14.4315 47.5685 1 31 1C14.4315 1 1 14.4315 1 31Z" stroke="#1B8900" stroke-width="1.5"/>
<path d="M44.4518 19.4462C45.1883 20.7928 44.6936 22.4814 43.347 23.2179C39.5359 25.3021 35.9568 29.6652 33.2241 33.8497C31.8919 35.8896 30.8232 37.7888 30.0881 39.1775C29.7213 39.8705 29.4394 40.4328 29.2513 40.8176L28.9783 41.3885C28.5489 42.327 27.6345 42.951 26.6039 43.0079C25.5731 43.0648 24.5957 42.5456 24.0658 41.6596C23.2023 40.216 21.8302 38.8981 20.5586 37.8928C19.9407 37.4043 19.3846 37.0192 18.9877 36.7592L18.4033 36.3937C17.0708 35.633 16.6068 33.9363 17.367 32.6034C18.1273 31.2701 19.8246 30.8057 21.1578 31.5661L22.0333 32.1098C22.5396 32.4415 23.2341 32.9226 24.0058 33.5328C24.5955 33.999 25.2549 34.5596 25.9206 35.2055C26.6344 33.9233 27.5263 32.4095 28.5705 30.8105C31.3959 26.4841 35.5982 21.1205 40.6801 18.3413C42.0268 17.6049 43.7154 18.0995 44.4518 19.4462Z" fill="white"/>
</svg>
