<svg width="21" height="22" viewBox="0 0 21 22" fill="none" xmlns="http://www.w3.org/2000/svg">
<rect width="21" height="22" fill="#1E1E1E"/>
<g id="Side Menu Bar">
<rect width="350" height="844" transform="translate(-32 -401)" fill="white"/>
<g id="Frame 257">
<g id="Frame 263">
<g id="Frame 260">
<g id="Frame 262">
<g id="policy">
<g id="elements">
<path id="Rectangle 2177" d="M9.47059 21C5.47751 21 3.48098 21 2.24049 19.8285C1 18.6569 1 16.7713 1 13L1 9.00003C1 5.22879 1 3.34318 2.24049 2.1716C3.48098 1.00003 5.47752 1.00003 9.47059 1.00003L10.5294 1.00003C14.5225 1.00003 16.519 1.00003 17.7595 2.1716C19 3.34318 19 5.2288 19 9.00003M9.5 21H11" stroke="#333333" stroke-width="1.5" stroke-linecap="round"/>
<path id="Vector 4435" d="M6 6.00003H14" stroke="#333333" stroke-width="1.5" stroke-linecap="round"/>
<path id="Vector 4436" d="M6 11H11" stroke="#333333" stroke-width="1.5" stroke-linecap="round"/>
<path id="Ellipse 1570" d="M15.5 17.5896L14.5978 20.7429C14.5572 20.9012 14.7139 21.0385 14.8659 20.9778L16.8514 20.1849C16.9468 20.1468 17.0532 20.1468 17.1486 20.1849L19.1531 20.9854C19.3014 21.0446 19.456 20.915 19.4231 20.7589L18.6589 17.4911M20 14.9952C20 13.341 18.6569 12 17 12C15.3431 12 14 13.341 14 14.9952C14 16.6493 15.3431 17.9903 17 17.9903C18.6569 17.9903 20 16.6493 20 14.9952Z" stroke="#333333" stroke-width="1.5" stroke-linejoin="round"/>
</g>
</g>
</g>
</g>
</g>
</g>
</g>
</svg>
