<svg width="19" height="21" viewBox="0 0 19 21" fill="none" xmlns="http://www.w3.org/2000/svg">
<g id="Profile Add 2">
<g id="Vector">
<path d="M15.75 13C15.75 12.5858 15.4142 12.25 15 12.25C14.5858 12.25 14.25 12.5858 14.25 13V15.25H12C11.5858 15.25 11.25 15.5858 11.25 16C11.25 16.4142 11.5858 16.75 12 16.75H14.25V19C14.25 19.4142 14.5858 19.75 15 19.75C15.4142 19.75 15.75 19.4142 15.75 19V16.75H18C18.4142 16.75 18.75 16.4142 18.75 16C18.75 15.5858 18.4142 15.25 18 15.25H15.75V13Z" fill="#333333"/>
<path d="M3 4.75C3 2.12665 5.12665 0 7.75 0C10.3734 0 12.5 2.12665 12.5 4.75C12.5 7.37335 10.3734 9.5 7.75 9.5C5.12665 9.5 3 7.37335 3 4.75Z" fill="#333333"/>
<path d="M0 15.75C0 13.1266 2.12665 11 4.75 11H10.75C11.7296 11 12.64 11.2966 13.3963 11.8048C13.1474 12.1382 13 12.5519 13 13V14H12C10.8954 14 10 14.8954 10 16C10 17.1046 10.8954 18 12 18H13V19C13 19.2968 13.0647 19.5785 13.1807 19.8318C12.4696 20.2562 11.6383 20.5 10.75 20.5H4.75C2.12665 20.5 0 18.3734 0 15.75Z" fill="#333333"/>
</g>
</g>
</svg>
