<svg width="22" height="20" viewBox="0 0 22 20" fill="none" xmlns="http://www.w3.org/2000/svg">
<path d="M4.18007 13.2964C2.92249 14.0335 -0.374787 15.5386 1.63348 17.422C2.6145 18.342 3.7071 19 5.08077 19H12.9192C14.2929 19 15.3855 18.342 16.3665 17.422C18.3748 15.5386 15.0775 14.0335 13.8199 13.2964C10.8709 11.5679 7.12906 11.5679 4.18007 13.2964Z" stroke="#333333" stroke-width="1.5" stroke-linecap="round" stroke-linejoin="round"/>
<path d="M13 5.00003C13 7.20917 11.2091 9.00003 9 9.00003C6.79086 9.00003 5 7.20917 5 5.00003C5 2.79089 6.79086 1.00003 9 1.00003C11.2091 1.00003 13 2.79089 13 5.00003Z" stroke="#333333" stroke-width="1.5"/>
<path d="M18.5 2.00003V7.00003M21 4.50003L16 4.50003" stroke="#333333" stroke-width="1.5" stroke-linecap="round" stroke-linejoin="round"/>
</svg>
