<svg width="22" height="22" viewBox="0 0 22 22" fill="none" xmlns="http://www.w3.org/2000/svg">
<rect width="22" height="22" fill="#1E1E1E"/>
<g id="Side Menu Bar">
<rect width="350" height="844" transform="translate(-31 -489)" fill="white"/>
<g id="Frame 257">
<g id="Frame 263">
<g id="Frame 260">
<g id="Frame 264">
<g id="money-exchange-01">
<g id="elements">
<path id="Vector" d="M18.3333 13L19.1565 13.7579C19.3357 13.934 19.4253 14.0221 19.3938 14.0969C19.3622 14.1717 19.2355 14.1717 18.9821 14.1717H15.8777C14.2884 14.1717 13 15.438 13 17C13 17.3521 13.0655 17.6891 13.185 18M15.6667 21L14.8435 20.2422C14.6643 20.066 14.5747 19.978 14.6062 19.9031C14.6378 19.8283 14.7645 19.8283 15.0179 19.8283H18.1223C19.7116 19.8283 21 18.562 21 17C21 16.648 20.9345 16.3109 20.815 16" stroke="#333333" stroke-width="1.5" stroke-linecap="round" stroke-linejoin="round"/>
<path id="Vector 6689" d="M20.9913 10.5C21 9.89929 21 9.73552 21 9.00003C21 5.22879 21 3.34318 19.8284 2.1716C18.6569 1.00003 16.7712 1.00003 13 1.00003H9C5.22876 1.00003 3.34315 1.00003 2.17157 2.1716C1 3.34318 1 5.22879 1 9.00003C1 12.7713 1 14.6569 2.17157 15.8285C3.34315 17 5.22876 17 9 17H10" stroke="#333333" stroke-width="1.5" stroke-linecap="round"/>
<path id="Vector_2" d="M17.5 9.00003H17.491" stroke="#333333" stroke-width="2" stroke-linecap="round" stroke-linejoin="round"/>
<path id="Vector_3" d="M4.5 9.00003H4.49102" stroke="#333333" stroke-width="2" stroke-linecap="round" stroke-linejoin="round"/>
<path id="Ellipse 1575" d="M13.5 9.00003C13.5 10.3807 12.3807 11.5 11 11.5C9.61929 11.5 8.5 10.3807 8.5 9.00003C8.5 7.61932 9.61929 6.50003 11 6.50003C12.3807 6.50003 13.5 7.61932 13.5 9.00003Z" stroke="#333333" stroke-width="1.5"/>
</g>
</g>
</g>
</g>
</g>
</g>
</g>
</svg>
