<svg width="16" height="20" viewBox="0 0 16 20" fill="none" xmlns="http://www.w3.org/2000/svg">
<g id="elements">
<path id="Rectangle 2248" d="M4.40025 10.8221C3.84806 8.02271 3.57197 6.623 4.16938 5.48416C4.76678 4.34531 6.05072 3.82374 8.61861 2.78059L9.14185 2.56803C11.0819 1.77994 12.0519 1.3859 12.6373 1.89479C13.2227 2.40369 13.0165 3.46165 12.6041 5.57758L10.7674 15H5.22432L4.40025 10.8221Z" stroke="#333333" stroke-width="1.5" stroke-linecap="round" stroke-linejoin="round"/>
<path id="Rectangle 2246" d="M3 17.5C3 16.3215 3 15.7322 3.36612 15.3661C3.73223 15 4.32149 15 5.5 15H10.5C11.6785 15 12.2678 15 12.6339 15.3661C13 15.7322 13 16.3215 13 17.5V18.3333H3V17.5Z" stroke="#333333" stroke-width="1.5" stroke-linecap="round" stroke-linejoin="round"/>
<path id="Vector 4463" d="M1.3335 18.3333L14.6668 18.3333" stroke="#333333" stroke-width="1.5" stroke-linecap="round" stroke-linejoin="round"/>
</g>
</svg>
