<svg width="19" height="19" viewBox="0 0 19 19" fill="none" xmlns="http://www.w3.org/2000/svg">
<path d="M3.33325 13.9856V7.78065C3.33325 5.05562 3.33325 3.69311 4.21193 2.84656C5.09061 2 6.50482 2 9.33325 2C12.1617 2 13.5759 2 14.4546 2.84656C15.3333 3.69311 15.3333 5.05562 15.3333 7.78065V13.9856C15.3333 15.715 15.3333 16.5797 14.7536 16.8892C13.6312 17.4886 11.5257 15.4889 10.5257 14.8868C9.94585 14.5376 9.6559 14.363 9.33325 14.363C9.01061 14.363 8.72066 14.5376 8.14075 14.8868C7.14085 15.4889 5.03535 17.4886 3.91289 16.8892C3.33325 16.5797 3.33325 15.715 3.33325 13.9856Z" stroke="#848485" stroke-width="1.5" stroke-linecap="round" stroke-linejoin="round"/>
</svg>
