<svg width="24" height="24" viewBox="0 0 24 24" fill="none" xmlns="http://www.w3.org/2000/svg">
<path d="M21.3175 7.14143L20.8239 6.28482C20.4506 5.63699 20.264 5.31308 19.9464 5.18391C19.6288 5.05475 19.2696 5.15667 18.5513 5.36051L17.3311 5.70421C16.8725 5.80997 16.3913 5.74997 15.9726 5.53482L15.6357 5.34045C15.2766 5.11047 15.0004 4.77136 14.8475 4.37277L14.5136 3.37539C14.294 2.71537 14.1842 2.38536 13.9228 2.1966C13.6615 2.00784 13.3143 2.00784 12.6199 2.00784L11.5051 2.00784C10.8108 2.00784 10.4636 2.00784 10.2022 2.1966C9.94085 2.38536 9.83106 2.71537 9.61149 3.37539L9.27753 4.37277C9.12465 4.77136 8.84845 5.11047 8.48937 5.34045L8.15249 5.53482C7.73374 5.74997 7.25259 5.80997 6.79398 5.70421L5.57375 5.36051C4.85541 5.15667 4.49625 5.05475 4.17867 5.18391C3.86109 5.31308 3.67445 5.63699 3.30115 6.28482L2.80757 7.14143C2.45766 7.74867 2.2827 8.0523 2.31666 8.37552C2.35061 8.69874 2.58483 8.95921 3.05326 9.48015L4.0843 10.6329C4.3363 10.9519 4.51521 11.5078 4.51521 12.0077C4.51521 12.5078 4.33636 13.0637 4.08433 13.3827L3.05326 14.5355C2.58483 15.0564 2.35062 15.3169 2.31666 15.6401C2.2827 15.9633 2.45766 16.2669 2.80757 16.8742L3.30114 17.7308C3.67443 18.3786 3.86109 18.7025 4.17867 18.8317C4.49625 18.9608 4.85542 18.8589 5.57377 18.6551L6.79394 18.3113C7.25263 18.2056 7.73387 18.2656 8.15267 18.4808L8.4895 18.6752C8.84851 18.9052 9.12464 19.2443 9.2775 19.6428L9.61149 20.6403C9.83106 21.3003 9.94085 21.6303 10.2022 21.8191C10.4636 22.0078 10.8108 22.0078 11.5051 22.0078H12.6199C13.3143 22.0078 13.6615 22.0078 13.9228 21.8191C14.1842 21.6303 14.294 21.3003 14.5136 20.6403L14.8476 19.6428C15.0004 19.2443 15.2765 18.9052 15.6356 18.6752L15.9724 18.4808C16.3912 18.2656 16.8724 18.2056 17.3311 18.3113L18.5513 18.6551C19.2696 18.8589 19.6288 18.9608 19.9464 18.8317C20.264 18.7025 20.4506 18.3786 20.8239 17.7308L21.3175 16.8742C21.6674 16.2669 21.8423 15.9633 21.8084 15.6401C21.7744 15.3169 21.5402 15.0564 21.0718 14.5355L20.0407 13.3827C19.7887 13.0637 19.6098 12.5078 19.6098 12.0077C19.6098 11.5078 19.7888 10.9519 20.0407 10.6329L21.0718 9.48015C21.5402 8.95921 21.7744 8.69874 21.8084 8.37552C21.8423 8.0523 21.6674 7.74867 21.3175 7.14143Z" stroke="#333333" stroke-width="1.5" stroke-linecap="round"/>
<path d="M15.5195 12C15.5195 13.933 13.9525 15.5 12.0195 15.5C10.0865 15.5 8.51953 13.933 8.51953 12C8.51953 10.067 10.0865 8.50003 12.0195 8.50003C13.9525 8.50003 15.5195 10.067 15.5195 12Z" stroke="#333333" stroke-width="1.5"/>
</svg>
