<svg width="18" height="19" viewBox="0 0 18 19" fill="none" xmlns="http://www.w3.org/2000/svg">
<path d="M15.2945 6.52376L13.9843 5.38596C13.0403 4.56615 12.6703 4.12514 12.1591 4.28104C11.5216 4.47545 11.7315 5.70207 11.7315 6.11618C10.7405 6.11618 9.71011 6.03995 8.73323 6.19877C5.50839 6.72306 4.5 9.01747 4.5 11.4894C5.41273 10.9299 6.32456 10.306 7.42155 10.0467C8.79091 9.72297 10.3203 9.87744 11.7315 9.87744C11.7315 10.2915 11.5216 11.5182 12.1591 11.7126C12.7383 11.8892 13.0403 11.4275 13.9843 10.6077L15.2945 9.46985C16.0982 8.77194 16.5 8.42299 16.5 7.99681C16.5 7.57063 16.0982 7.22167 15.2945 6.52376Z" stroke="#848485" stroke-width="1.5" stroke-linecap="round" stroke-linejoin="round"/>
<path d="M7.92569 2.75C5.03051 2.7552 3.51445 2.82614 2.54558 3.79305C1.5 4.83651 1.5 6.51594 1.5 9.87479C1.5 13.2336 1.5 14.9131 2.54558 15.9565C3.59115 17 5.27399 17 8.63965 17C12.0053 17 13.6881 17 14.7337 15.9565C15.4617 15.23 15.6828 14.1952 15.75 12.5" stroke="#848485" stroke-width="1.5" stroke-linecap="round" stroke-linejoin="round"/>
</svg>
