<svg width="18" height="18" viewBox="0 0 18 18" fill="none" xmlns="http://www.w3.org/2000/svg">
<path fill-rule="evenodd" clip-rule="evenodd" d="M8.99986 0.750092C8.45969 0.750092 8.1282 1.14489 7.91269 1.485C7.69155 1.83399 7.46338 2.33671 7.19257 2.93335L7.19256 2.93337C7.08741 3.16502 6.98537 3.39931 6.88317 3.63397C6.64535 4.18006 6.40664 4.72818 6.12566 5.24982C5.91128 5.64783 5.53262 5.87483 5.07101 5.711C4.89695 5.64923 4.67792 5.55231 4.34711 5.40528C4.26753 5.3699 4.18444 5.33042 4.0987 5.28967C3.64386 5.07352 3.11412 4.82178 2.63448 4.95901C2.16289 5.09393 1.82727 5.48579 1.71708 5.94408C1.65011 6.22259 1.7085 6.50832 1.77692 6.75424C1.84765 7.00847 1.96277 7.32706 2.10161 7.71127L2.10161 7.71129L2.10162 7.7113L3.37085 11.224L3.37085 11.224L3.37086 11.224C3.62965 11.9403 3.83852 12.5184 4.05491 12.9671C4.49741 13.8847 5.19515 14.4449 6.21728 14.5687C6.68301 14.6251 7.25431 14.6251 7.94883 14.6251H10.0509C10.7454 14.6251 11.3167 14.6251 11.7824 14.5687C12.8046 14.4449 13.5023 13.8847 13.9448 12.9671C14.1612 12.5183 14.3701 11.9402 14.6289 11.2239L15.8981 7.71126C16.037 7.32705 16.1521 7.00846 16.2228 6.75424C16.2912 6.50832 16.3496 6.22259 16.2826 5.94408C16.1725 5.48579 15.8368 5.09393 15.3652 4.95901C14.8904 4.82316 14.3625 5.07261 13.9121 5.28545C13.8308 5.32385 13.7521 5.36107 13.6766 5.39461C13.6305 5.4151 13.5845 5.4358 13.5384 5.45653C13.3375 5.54683 13.136 5.63742 12.9287 5.711C12.4671 5.87483 12.0884 5.64783 11.8741 5.24982C11.5931 4.72817 11.3544 4.18005 11.1165 3.63396C11.0143 3.39929 10.9123 3.165 10.8071 2.93334C10.5363 2.33671 10.3082 1.83399 10.087 1.485C9.87152 1.14489 9.54003 0.750092 8.99986 0.750092ZM8.99927 9.75009C8.38072 9.75009 7.8793 10.2538 7.8793 10.8751C7.8793 11.4964 8.38072 12.0001 8.99927 12.0001H9.00933C9.62787 12.0001 10.1293 11.4964 10.1293 10.8751C10.1293 10.2538 9.62787 9.75009 9.00933 9.75009H8.99927Z" fill="#333333"/>
<path fill-rule="evenodd" clip-rule="evenodd" d="M4.49988 16.5C4.49988 16.0858 4.83566 15.75 5.24988 15.75H12.7499C13.1641 15.75 13.4999 16.0858 13.4999 16.5C13.4999 16.9142 13.1641 17.25 12.7499 17.25H5.24988C4.83566 17.25 4.49988 16.9142 4.49988 16.5Z" fill="#333333"/>
</svg>
