<svg width="22" height="20" viewBox="0 0 22 20" fill="none" xmlns="http://www.w3.org/2000/svg">
<g id="elements">
<path id="Vector" d="M13.7041 17.6345L13.7041 17.6344L11.0442 14.6103C9.72737 13.1131 9.57144 12.4552 9.65807 12.3134L10.6564 11.5094L14.7027 8.34442C15.029 8.08922 15.0866 7.61786 14.8314 7.29159C14.5762 6.96533 14.1048 6.90772 13.7785 7.16292L9.72799 10.3311L8.50989 11.3253C8.22553 11.6305 8.04418 12.1524 8.24197 12.8946C8.42654 13.5872 8.94427 14.5026 10.0466 15.7593L9.63949 16.5622C9.37655 16.9277 9.1324 17.2671 8.90771 17.4997C8.68445 17.7308 8.27877 18.0705 7.71374 17.9581C7.15614 17.8472 6.90592 17.3862 6.78203 17.0904C6.65621 16.7899 6.54964 16.3824 6.43402 15.9404L5.93252 14.0239C5.65396 12.9594 5.55777 12.6534 5.37651 12.4282C5.35363 12.3998 5.3298 12.3723 5.30509 12.3459C5.11372 12.141 4.84345 12.0149 3.8535 11.6181L3.79927 11.5963C2.82368 11.2053 2.02006 10.8832 1.45798 10.5667C0.91344 10.2601 0.325401 9.81437 0.257753 9.06231C0.247239 8.94543 0.247419 8.82779 0.258291 8.71094C0.328254 7.95901 0.917753 7.51516 1.46325 7.21037C2.02632 6.89576 2.83094 6.57633 3.80773 6.18854L15.7918 1.43052C17.0177 0.943789 18.02 0.545793 18.8076 0.364343C19.6106 0.179347 20.4401 0.159762 21.0901 0.761007C21.7273 1.35039 21.8036 2.18068 21.7242 3.01747C21.6454 3.8477 21.3864 4.92742 21.0669 6.2593L18.6472 16.3463L18.6472 16.3464C18.4436 17.1954 18.2717 17.9121 18.0655 18.4321C17.8573 18.9575 17.5233 19.5216 16.8484 19.7001C16.1654 19.8807 15.6009 19.544 15.1719 19.1809C14.7505 18.8243 14.2699 18.2779 13.7041 17.6345Z" fill="#24A1DE"/>
</g>
</svg>
