<svg width="20" height="22" viewBox="0 0 20 22" fill="none" xmlns="http://www.w3.org/2000/svg">
<rect width="20" height="22" fill="#1E1E1E"/>
<g id="Side Menu Bar">
<rect width="350" height="844" transform="translate(-32 -445)" fill="white"/>
<g id="Frame 257">
<g id="Frame 263">
<g id="Frame 260">
<g id="Frame 263_2">
<g id="legal-document-01">
<g id="elements">
<path id="Vector 6763" d="M1 13V9.00003C1 5.22879 1 3.34318 2.17157 2.1716C3.34315 1.00003 5.22876 1.00003 9 1.00003H11C14.7712 1.00003 16.6569 1.00003 17.8284 2.1716C19 3.34318 19 5.22879 19 9.00003V13C19 16.7713 19 18.6569 17.8284 19.8285C16.6569 21 14.7712 21 11 21H9C5.22876 21 3.34315 21 2.17157 19.8285C1 18.6569 1 16.7713 1 13Z" stroke="#333333" stroke-width="1.5"/>
<path id="Vector" d="M9.33333 9.6667C10.3883 10.7216 11.7778 11.7937 11.7778 11.7937L13.6825 9.88892C13.6825 9.88892 12.6105 8.49942 11.5556 7.44447C10.5006 6.38953 9.11111 5.31749 9.11111 5.31749L7.20635 7.22225C7.20635 7.22225 8.27839 8.61175 9.33333 9.6667ZM9.33333 9.6667L6 13M14 9.57146L11.4603 12.1111M9.42857 5.00003L6.88889 7.53971" stroke="#333333" stroke-width="1.5" stroke-linecap="round" stroke-linejoin="round"/>
<path id="Vector 6764" d="M6 17H14" stroke="#333333" stroke-width="1.5" stroke-linecap="round"/>
</g>
</g>
</g>
</g>
</g>
</g>
</g>
</svg>
