<svg width="18" height="19" viewBox="0 0 18 19" fill="none" xmlns="http://www.w3.org/2000/svg">
<path d="M1.5 9.5C1.5 8.67157 2.17157 8 3 8C4.24264 8 5.25 9.00736 5.25 10.25V13.25C5.25 14.4926 4.24264 15.5 3 15.5C2.17157 15.5 1.5 14.8284 1.5 14V9.5Z" stroke="#848485" stroke-width="1.5" stroke-linecap="round" stroke-linejoin="round"/>
<path d="M11.6091 5.97969L11.4093 6.62476C11.2457 7.15333 11.1638 7.41762 11.2268 7.62635C11.2777 7.79521 11.3894 7.94076 11.5418 8.03653C11.73 8.15491 12.0148 8.15491 12.5843 8.15491H12.8873C14.8149 8.15491 15.7786 8.15491 16.2339 8.72547C16.2859 8.79068 16.3322 8.86002 16.3722 8.93275C16.7224 9.56911 16.3243 10.4263 15.528 12.1408C14.7973 13.7142 14.4319 14.5008 13.7535 14.9639C13.6878 15.0087 13.6204 15.051 13.5512 15.0906C12.837 15.5 11.9521 15.5 10.1823 15.5H9.79845C7.65429 15.5 6.58221 15.5 5.9161 14.8546C5.25 14.2092 5.25 13.1705 5.25 11.0929V10.3628C5.25 9.27098 5.25 8.72509 5.44376 8.22545C5.63751 7.72581 6.00851 7.31498 6.75052 6.49334L9.81909 3.09542C9.89604 3.0102 9.93453 2.96759 9.96846 2.93806C10.2852 2.66246 10.7739 2.69348 11.0508 3.00676C11.0805 3.04032 11.1129 3.08743 11.1777 3.18165C11.2791 3.32904 11.3298 3.40273 11.374 3.47574C11.7696 4.12935 11.8893 4.90577 11.7081 5.64286C11.6879 5.72519 11.6616 5.81007 11.6091 5.97969Z" stroke="#848485" stroke-width="1.5" stroke-linecap="round" stroke-linejoin="round"/>
</svg>
