<svg width="19" height="19" viewBox="0 0 19 19" fill="none" xmlns="http://www.w3.org/2000/svg">
<path d="M2 9.47307C2 8.60641 2.53726 7.90384 3.2 7.90384C4.19411 7.90384 5 8.95769 5 10.2577V13.3961C5 14.6961 4.19411 15.75 3.2 15.75C2.53726 15.75 2 15.0474 2 14.1808V9.47307Z" fill="#3464F2"/>
<path d="M12.2177 6.22969L12.0225 6.87476C11.8624 7.40333 11.7824 7.66762 11.844 7.87635C11.8937 8.04521 12.003 8.19076 12.1519 8.28653C12.336 8.40491 12.6145 8.40491 13.1714 8.40491H13.4676C15.3523 8.40491 16.2947 8.40491 16.7398 8.97547C16.7907 9.04068 16.8359 9.11002 16.875 9.18275C17.2174 9.81911 16.8282 10.6763 16.0496 12.3908C15.3351 13.9642 14.9779 14.7508 14.3146 15.2139C14.2503 15.2587 14.1844 15.301 14.1167 15.3406C13.4184 15.75 12.5532 15.75 10.8227 15.75H10.4474C8.35086 15.75 7.3026 15.75 6.6513 15.1046C6 14.4592 6 13.4205 6 11.3429V10.6128C6 9.52098 6 8.97509 6.18945 8.47545C6.3789 7.97581 6.74166 7.56498 7.46718 6.74334L10.4676 3.34542C10.5428 3.2602 10.5804 3.21759 10.6136 3.18806C10.9233 2.91246 11.4012 2.94348 11.6719 3.25676C11.7009 3.29032 11.7326 3.33743 11.796 3.43165C11.8951 3.57904 11.9447 3.65273 11.9879 3.72574C12.3747 4.37935 12.4918 5.15577 12.3146 5.89286C12.2948 5.97519 12.2691 6.06007 12.2177 6.22969Z" fill="#3464F2"/>
</svg>
