<svg width="36" height="35" viewBox="0 0 36 35" fill="none" xmlns="http://www.w3.org/2000/svg">
<path d="M10.0118 13.1411C10.0009 13.1411 9.98999 13.141 9.97909 13.141C6.35472 13.141 3.41659 16.0846 3.41659 19.7156C3.41659 23.0997 5.96871 25.8866 9.24992 26.25M10.0118 13.1411C9.99015 12.9005 9.97909 12.6568 9.97909 12.4105C9.97909 7.97264 13.5701 4.375 17.9999 4.375C22.1952 4.375 25.6382 7.60181 25.991 11.7132M10.0118 13.1411C10.1609 14.7986 10.8123 16.3109 11.8124 17.5241M25.991 11.7132C29.6899 12.0659 32.5833 15.187 32.5833 18.9851C32.5833 22.5192 30.0782 25.4672 26.7499 26.144M25.991 11.7132C25.7608 11.6913 25.5275 11.68 25.2916 11.68C23.6498 11.68 22.1347 12.2237 20.9159 13.141" stroke="#333333" stroke-width="1.5" stroke-linecap="round" stroke-linejoin="round"/>
<path d="M17.9999 18.9583L17.9999 30.625M17.9999 18.9583C19.0211 18.9583 20.9289 21.8667 21.6458 22.6042M17.9999 18.9583C16.9788 18.9583 15.0709 21.8667 14.3541 22.6042" stroke="#333333" stroke-width="1.5" stroke-linecap="round" stroke-linejoin="round"/>
</svg>
