<svg width="18" height="19" viewBox="0 0 18 19" fill="none" xmlns="http://www.w3.org/2000/svg">
<path fill-rule="evenodd" clip-rule="evenodd" d="M9 1.4375C8.57913 1.4375 8.23623 1.61459 7.92416 1.85268C7.63191 2.07566 7.30955 2.39806 6.9324 2.77524L6.93239 2.77525L6.90587 2.80178C6.51987 3.18777 6.18337 3.33969 5.66406 3.33969C5.59898 3.33969 5.51685 3.33738 5.42409 3.33477H5.42408C5.18631 3.32808 4.87873 3.31943 4.60961 3.3427C4.21596 3.37674 3.72399 3.48447 3.35059 3.861C2.98005 4.23466 2.87495 4.72462 2.84193 5.11579C2.81941 5.38246 2.82806 5.68776 2.83475 5.92383C2.83738 6.01685 2.83971 6.09912 2.83971 6.16404C2.83971 6.68336 2.68778 7.01986 2.30177 7.40588L2.27525 7.43239C1.89806 7.80954 1.57567 8.13191 1.35268 8.42416C1.11459 8.73622 0.937506 9.07913 0.9375 9.5C0.93751 9.92085 1.11459 10.2638 1.35269 10.5758C1.57571 10.8681 1.89818 11.1906 2.27546 11.5678L2.30179 11.5941C2.55204 11.8444 2.67009 12.0066 2.73699 12.1598C2.80214 12.309 2.83971 12.4978 2.83971 12.8359C2.83971 12.901 2.8374 12.9831 2.83479 13.0759C2.8281 13.3137 2.81944 13.6213 2.84272 13.8904C2.87677 14.284 2.9845 14.776 3.36105 15.1494C3.7347 15.5199 4.22465 15.625 4.61582 15.6581C4.88248 15.6806 5.18777 15.6719 5.42384 15.6652H5.42387H5.4239C5.51689 15.6626 5.59914 15.6603 5.66405 15.6603C5.99496 15.6603 6.18094 15.6935 6.32734 15.754C6.4736 15.8143 6.63004 15.9224 6.86568 16.158C6.91601 16.2083 6.98234 16.2794 7.05884 16.3614L7.05885 16.3614C7.23132 16.5463 7.45553 16.7866 7.66496 16.9697C7.9828 17.2475 8.43866 17.5625 9.00001 17.5625C9.56137 17.5625 10.0172 17.2475 10.3351 16.9697C10.5445 16.7866 10.7687 16.5463 10.9412 16.3614C11.0177 16.2794 11.084 16.2083 11.1343 16.158C11.37 15.9224 11.5264 15.8143 11.6727 15.754C11.8191 15.6935 12.005 15.6603 12.336 15.6603C12.4009 15.6603 12.4831 15.6626 12.5761 15.6652H12.5761H12.5762C12.8122 15.6719 13.1175 15.6806 13.3842 15.6581C13.7753 15.625 14.2653 15.5199 14.639 15.1494C15.0155 14.776 15.1232 14.284 15.1573 13.8904C15.1806 13.6213 15.1719 13.3137 15.1652 13.0759L15.1652 13.0757C15.1626 12.983 15.1603 12.901 15.1603 12.8359C15.1603 12.4978 15.1979 12.309 15.263 12.1598C15.3299 12.0066 15.448 11.8444 15.6982 11.5941L15.7246 11.5678C16.1018 11.1906 16.4243 10.8681 16.6473 10.5758C16.8854 10.2638 17.0625 9.92085 17.0625 9.5C17.0625 9.07911 16.8854 8.73622 16.6473 8.42416C16.4243 8.13191 16.1019 7.80956 15.7248 7.43241L15.6982 7.40588C15.448 7.15562 15.3299 6.99334 15.263 6.84016C15.1979 6.69101 15.1603 6.50216 15.1603 6.16404C15.1603 6.09901 15.1626 6.01695 15.1652 5.92427L15.1652 5.92407C15.1719 5.6863 15.1806 5.37872 15.1573 5.10961C15.1232 4.71597 15.0155 4.224 14.639 3.8506C14.2653 3.48004 13.7754 3.37494 13.3842 3.34191C13.1175 3.31939 12.8122 3.32804 12.5761 3.33473C12.4831 3.33736 12.4009 3.33969 12.3359 3.33969C11.8165 3.33969 11.4801 3.18771 11.0941 2.80178L11.0676 2.77526C10.6905 2.39807 10.3681 2.07567 10.0758 1.85268C9.76377 1.61458 9.42087 1.4375 9 1.4375ZM11.5965 8.29034C11.9639 8.099 12.1066 7.64608 11.9153 7.2787C11.7239 6.91133 11.271 6.76863 10.9036 6.95997C9.83266 7.51777 8.9589 8.58559 8.38154 9.42757C8.21885 9.66482 8.07419 9.89243 7.94982 10.098C7.86493 10.0261 7.78305 9.96155 7.70748 9.90464C7.546 9.78305 7.40078 9.68722 7.29472 9.62105L7.10927 9.5114L7.10806 9.51074C6.74408 9.31304 6.28874 9.44783 6.09103 9.81182C5.89337 10.1757 6.02831 10.6311 6.39211 10.8289C6.49992 10.897 6.73347 11.0473 6.80519 11.1029C7.05538 11.2913 7.31031 11.5278 7.46496 11.774C7.61024 12.0054 7.86981 12.1394 8.14254 12.124C8.41518 12.1085 8.65798 11.9458 8.77623 11.6997C8.81458 11.6224 8.91197 11.4314 8.9947 11.2854C9.14097 11.0222 9.35371 10.6622 9.61863 10.2759C10.1663 9.47722 10.8675 8.67004 11.5965 8.29034Z" fill="#3464F2"/>
</svg>
